<mxfile host="Electron" modified="2023-08-16T13:52:34.894Z" agent="Mozilla/5.0 (Macintosh; Intel Mac OS X 10_15_7) AppleWebKit/537.36 (KHTML, like Gecko) draw.io/21.6.8 Chrome/114.0.5735.289 Electron/25.5.0 Safari/537.36" etag="s-BN8IzxplFRjARHQBpI" version="21.6.8" type="device">
  <diagram name="Page-1" id="4Bgoo3D6VYdwiwDV1hbo">
    <mxGraphModel dx="954" dy="619" grid="1" gridSize="10" guides="1" tooltips="1" connect="1" arrows="1" fold="1" page="1" pageScale="1" pageWidth="827" pageHeight="1169" math="0" shadow="0">
      <root>
        <mxCell id="0" />
        <mxCell id="1" parent="0" />
        <mxCell id="Cp0hF8P1XbObhAQc_Zf8-23" value="" style="rounded=1;whiteSpace=wrap;html=1;" parent="1" vertex="1">
          <mxGeometry x="420" y="150" width="370" height="300" as="geometry" />
        </mxCell>
        <mxCell id="Cp0hF8P1XbObhAQc_Zf8-1" value="" style="rounded=1;whiteSpace=wrap;html=1;" parent="1" vertex="1">
          <mxGeometry x="30" y="60" width="330" height="380" as="geometry" />
        </mxCell>
        <mxCell id="Cp0hF8P1XbObhAQc_Zf8-2" value="System" style="text;html=1;align=center;verticalAlign=middle;resizable=0;points=[];autosize=1;strokeColor=none;fillColor=none;" parent="1" vertex="1">
          <mxGeometry x="165" y="30" width="60" height="30" as="geometry" />
        </mxCell>
        <mxCell id="Cp0hF8P1XbObhAQc_Zf8-3" value="Inventory" style="rounded=1;whiteSpace=wrap;html=1;fillColor=#dae8fc;strokeColor=#6c8ebf;fontStyle=1" parent="1" vertex="1">
          <mxGeometry x="50" y="277" width="120" height="60" as="geometry" />
        </mxCell>
        <mxCell id="Cp0hF8P1XbObhAQc_Zf8-4" value="Payment" style="rounded=1;whiteSpace=wrap;html=1;fillColor=#dae8fc;strokeColor=#6c8ebf;fontStyle=1" parent="1" vertex="1">
          <mxGeometry x="223" y="167" width="120" height="60" as="geometry" />
        </mxCell>
        <mxCell id="Cp0hF8P1XbObhAQc_Zf8-5" value="Customer" style="rounded=1;whiteSpace=wrap;html=1;fillColor=#dae8fc;strokeColor=#6c8ebf;fontStyle=1" parent="1" vertex="1">
          <mxGeometry x="223" y="277" width="120" height="60" as="geometry" />
        </mxCell>
        <mxCell id="Cp0hF8P1XbObhAQc_Zf8-6" value="Orders" style="rounded=1;whiteSpace=wrap;html=1;fillColor=#dae8fc;strokeColor=#6c8ebf;fontStyle=1" parent="1" vertex="1">
          <mxGeometry x="50" y="167" width="120" height="60" as="geometry" />
        </mxCell>
        <mxCell id="Cp0hF8P1XbObhAQc_Zf8-7" value="DB" style="shape=cylinder3;whiteSpace=wrap;html=1;boundedLbl=1;backgroundOutline=1;size=15;fillColor=#d5e8d4;strokeColor=#82b366;fontStyle=1" parent="1" vertex="1">
          <mxGeometry x="85" y="77" width="50" height="60" as="geometry" />
        </mxCell>
        <mxCell id="Cp0hF8P1XbObhAQc_Zf8-8" value="DB" style="shape=cylinder3;whiteSpace=wrap;html=1;boundedLbl=1;backgroundOutline=1;size=15;fillColor=#d5e8d4;strokeColor=#82b366;fontStyle=1" parent="1" vertex="1">
          <mxGeometry x="258" y="77" width="50" height="60" as="geometry" />
        </mxCell>
        <mxCell id="Cp0hF8P1XbObhAQc_Zf8-9" value="DB" style="shape=cylinder3;whiteSpace=wrap;html=1;boundedLbl=1;backgroundOutline=1;size=15;fillColor=#d5e8d4;strokeColor=#82b366;fontStyle=1" parent="1" vertex="1">
          <mxGeometry x="85" y="367" width="50" height="60" as="geometry" />
        </mxCell>
        <mxCell id="Cp0hF8P1XbObhAQc_Zf8-10" value="DB" style="shape=cylinder3;whiteSpace=wrap;html=1;boundedLbl=1;backgroundOutline=1;size=15;fillColor=#d5e8d4;strokeColor=#82b366;fontStyle=1" parent="1" vertex="1">
          <mxGeometry x="258" y="367" width="50" height="60" as="geometry" />
        </mxCell>
        <mxCell id="Cp0hF8P1XbObhAQc_Zf8-11" value="" style="endArrow=classic;html=1;rounded=0;strokeColor=#CC0066;strokeWidth=2;" parent="1" source="Cp0hF8P1XbObhAQc_Zf8-6" target="Cp0hF8P1XbObhAQc_Zf8-7" edge="1">
          <mxGeometry width="50" height="50" relative="1" as="geometry">
            <mxPoint x="60" y="537" as="sourcePoint" />
            <mxPoint x="110" y="487" as="targetPoint" />
          </mxGeometry>
        </mxCell>
        <mxCell id="Cp0hF8P1XbObhAQc_Zf8-12" value="" style="endArrow=classic;html=1;rounded=0;strokeColor=#CC0066;strokeWidth=2;" parent="1" source="Cp0hF8P1XbObhAQc_Zf8-4" target="Cp0hF8P1XbObhAQc_Zf8-8" edge="1">
          <mxGeometry width="50" height="50" relative="1" as="geometry">
            <mxPoint x="43" y="167" as="sourcePoint" />
            <mxPoint x="83" y="167" as="targetPoint" />
          </mxGeometry>
        </mxCell>
        <mxCell id="Cp0hF8P1XbObhAQc_Zf8-13" value="" style="endArrow=classic;html=1;rounded=0;strokeColor=#CC0066;strokeWidth=2;" parent="1" source="Cp0hF8P1XbObhAQc_Zf8-3" target="Cp0hF8P1XbObhAQc_Zf8-9" edge="1">
          <mxGeometry width="50" height="50" relative="1" as="geometry">
            <mxPoint x="200" y="177" as="sourcePoint" />
            <mxPoint x="240" y="177" as="targetPoint" />
          </mxGeometry>
        </mxCell>
        <mxCell id="Cp0hF8P1XbObhAQc_Zf8-15" value="" style="endArrow=classic;html=1;rounded=0;strokeColor=#CC0066;strokeWidth=2;" parent="1" source="Cp0hF8P1XbObhAQc_Zf8-5" target="Cp0hF8P1XbObhAQc_Zf8-10" edge="1">
          <mxGeometry width="50" height="50" relative="1" as="geometry">
            <mxPoint x="73" y="197" as="sourcePoint" />
            <mxPoint x="113" y="197" as="targetPoint" />
          </mxGeometry>
        </mxCell>
        <mxCell id="Cp0hF8P1XbObhAQc_Zf8-16" value="" style="endArrow=classic;html=1;rounded=0;strokeColor=#CC0066;strokeWidth=2;" parent="1" source="Cp0hF8P1XbObhAQc_Zf8-4" target="Cp0hF8P1XbObhAQc_Zf8-6" edge="1">
          <mxGeometry width="50" height="50" relative="1" as="geometry">
            <mxPoint x="680" y="167" as="sourcePoint" />
            <mxPoint x="730" y="117" as="targetPoint" />
          </mxGeometry>
        </mxCell>
        <mxCell id="Cp0hF8P1XbObhAQc_Zf8-17" value="" style="endArrow=classic;html=1;rounded=0;strokeColor=#CC0066;strokeWidth=2;" parent="1" source="Cp0hF8P1XbObhAQc_Zf8-6" target="Cp0hF8P1XbObhAQc_Zf8-3" edge="1">
          <mxGeometry width="50" height="50" relative="1" as="geometry">
            <mxPoint x="350" y="207" as="sourcePoint" />
            <mxPoint x="180" y="207" as="targetPoint" />
          </mxGeometry>
        </mxCell>
        <mxCell id="Cp0hF8P1XbObhAQc_Zf8-18" value="" style="endArrow=classic;html=1;rounded=0;strokeColor=#CC0066;strokeWidth=2;" parent="1" source="Cp0hF8P1XbObhAQc_Zf8-6" target="Cp0hF8P1XbObhAQc_Zf8-5" edge="1">
          <mxGeometry width="50" height="50" relative="1" as="geometry">
            <mxPoint x="360" y="217" as="sourcePoint" />
            <mxPoint x="190" y="217" as="targetPoint" />
          </mxGeometry>
        </mxCell>
        <mxCell id="Cp0hF8P1XbObhAQc_Zf8-19" value="" style="endArrow=classic;html=1;rounded=0;strokeColor=#CC0066;strokeWidth=2;" parent="1" source="Cp0hF8P1XbObhAQc_Zf8-5" target="Cp0hF8P1XbObhAQc_Zf8-4" edge="1">
          <mxGeometry width="50" height="50" relative="1" as="geometry">
            <mxPoint x="253" y="227" as="sourcePoint" />
            <mxPoint x="83" y="227" as="targetPoint" />
          </mxGeometry>
        </mxCell>
        <mxCell id="Cp0hF8P1XbObhAQc_Zf8-22" value="" style="shape=step;perimeter=stepPerimeter;whiteSpace=wrap;html=1;fixedSize=1;fillColor=#fff2cc;strokeColor=#d6b656;" parent="1" vertex="1">
          <mxGeometry x="342" y="290.5" width="80" height="33" as="geometry" />
        </mxCell>
        <mxCell id="Cp0hF8P1XbObhAQc_Zf8-30" style="edgeStyle=orthogonalEdgeStyle;rounded=0;orthogonalLoop=1;jettySize=auto;html=1;strokeColor=#CC0066;strokeWidth=2;" parent="1" source="Cp0hF8P1XbObhAQc_Zf8-28" target="Cp0hF8P1XbObhAQc_Zf8-29" edge="1">
          <mxGeometry relative="1" as="geometry" />
        </mxCell>
        <mxCell id="Cp0hF8P1XbObhAQc_Zf8-28" value="&lt;p style=&quot;margin:0px;margin-top:4px;text-align:center;&quot;&gt;&lt;b&gt;Class CustomerManager&lt;/b&gt;&lt;/p&gt;&lt;hr size=&quot;1&quot;&gt;&lt;div style=&quot;height:2px;&quot;&gt;...&lt;/div&gt;" style="verticalAlign=top;align=left;overflow=fill;fontSize=12;fontFamily=Helvetica;html=1;whiteSpace=wrap;fillColor=#f8cecc;strokeColor=#b85450;" parent="1" vertex="1">
          <mxGeometry x="445" y="269.5" width="160" height="60" as="geometry" />
        </mxCell>
        <mxCell id="Cp0hF8P1XbObhAQc_Zf8-31" style="edgeStyle=orthogonalEdgeStyle;rounded=0;orthogonalLoop=1;jettySize=auto;html=1;strokeColor=#CC0066;strokeWidth=2;" parent="1" source="Cp0hF8P1XbObhAQc_Zf8-29" target="Cp0hF8P1XbObhAQc_Zf8-10" edge="1">
          <mxGeometry relative="1" as="geometry" />
        </mxCell>
        <mxCell id="Cp0hF8P1XbObhAQc_Zf8-29" value="&lt;p style=&quot;margin:0px;margin-top:4px;text-align:center;&quot;&gt;&lt;b&gt;Class CustomerRepository&lt;/b&gt;&lt;/p&gt;&lt;hr size=&quot;1&quot;&gt;&lt;div style=&quot;height:2px;&quot;&gt;..;&lt;/div&gt;" style="verticalAlign=top;align=left;overflow=fill;fontSize=12;fontFamily=Helvetica;html=1;whiteSpace=wrap;fillColor=#f8cecc;strokeColor=#b85450;" parent="1" vertex="1">
          <mxGeometry x="445" y="367" width="160" height="60" as="geometry" />
        </mxCell>
        <mxCell id="Cp0hF8P1XbObhAQc_Zf8-33" style="edgeStyle=orthogonalEdgeStyle;rounded=0;orthogonalLoop=1;jettySize=auto;html=1;strokeColor=#CC0066;strokeWidth=2;" parent="1" source="Cp0hF8P1XbObhAQc_Zf8-32" target="Cp0hF8P1XbObhAQc_Zf8-28" edge="1">
          <mxGeometry relative="1" as="geometry" />
        </mxCell>
        <mxCell id="Cp0hF8P1XbObhAQc_Zf8-32" value="&lt;p style=&quot;margin:0px;margin-top:4px;text-align:center;&quot;&gt;&lt;b&gt;Class CustomerEndpoint&lt;/b&gt;&lt;/p&gt;&lt;hr size=&quot;1&quot;&gt;&lt;div style=&quot;height:2px;&quot;&gt;&amp;nbsp; &amp;nbsp; &amp;nbsp; &amp;nbsp;&lt;b&gt;/api/customer&lt;/b&gt;&lt;/div&gt;&lt;div style=&quot;height:2px;&quot;&gt;&lt;br&gt;&lt;/div&gt;" style="verticalAlign=top;align=left;overflow=fill;fontSize=12;fontFamily=Helvetica;html=1;whiteSpace=wrap;fillColor=#f8cecc;strokeColor=#b85450;" parent="1" vertex="1">
          <mxGeometry x="445" y="170" width="160" height="60" as="geometry" />
        </mxCell>
        <mxCell id="Cp0hF8P1XbObhAQc_Zf8-34" value="Customer Manager Application" style="text;html=1;align=center;verticalAlign=middle;resizable=0;points=[];autosize=1;strokeColor=none;fillColor=none;" parent="1" vertex="1">
          <mxGeometry x="500" y="118" width="190" height="30" as="geometry" />
        </mxCell>
        <mxCell id="Cp0hF8P1XbObhAQc_Zf8-35" style="edgeStyle=orthogonalEdgeStyle;rounded=0;orthogonalLoop=1;jettySize=auto;html=1;strokeColor=#CC0066;strokeWidth=2;" parent="1" source="Cp0hF8P1XbObhAQc_Zf8-36" target="Cp0hF8P1XbObhAQc_Zf8-37" edge="1">
          <mxGeometry relative="1" as="geometry" />
        </mxCell>
        <mxCell id="Cp0hF8P1XbObhAQc_Zf8-36" value="&lt;p style=&quot;margin:0px;margin-top:4px;text-align:center;&quot;&gt;&lt;b&gt;Class ... Manager&lt;/b&gt;&lt;/p&gt;&lt;hr size=&quot;1&quot;&gt;&lt;div style=&quot;height:2px;&quot;&gt;...&lt;/div&gt;" style="verticalAlign=top;align=left;overflow=fill;fontSize=12;fontFamily=Helvetica;html=1;whiteSpace=wrap;fillColor=#f8cecc;strokeColor=#b85450;" parent="1" vertex="1">
          <mxGeometry x="630" y="271" width="130" height="60" as="geometry" />
        </mxCell>
        <mxCell id="Cp0hF8P1XbObhAQc_Zf8-40" style="edgeStyle=orthogonalEdgeStyle;rounded=0;orthogonalLoop=1;jettySize=auto;html=1;curved=1;entryX=0.5;entryY=1;entryDx=0;entryDy=0;entryPerimeter=0;strokeColor=#CC0066;strokeWidth=2;" parent="1" source="Cp0hF8P1XbObhAQc_Zf8-37" target="Cp0hF8P1XbObhAQc_Zf8-10" edge="1">
          <mxGeometry relative="1" as="geometry">
            <Array as="points">
              <mxPoint x="710" y="470" />
              <mxPoint x="283" y="470" />
            </Array>
          </mxGeometry>
        </mxCell>
        <mxCell id="Cp0hF8P1XbObhAQc_Zf8-37" value="&lt;p style=&quot;margin:0px;margin-top:4px;text-align:center;&quot;&gt;&lt;b&gt;Class ... Repository&lt;/b&gt;&lt;/p&gt;&lt;hr size=&quot;1&quot;&gt;&lt;div style=&quot;height:2px;&quot;&gt;..;&lt;/div&gt;" style="verticalAlign=top;align=left;overflow=fill;fontSize=12;fontFamily=Helvetica;html=1;whiteSpace=wrap;fillColor=#f8cecc;strokeColor=#b85450;" parent="1" vertex="1">
          <mxGeometry x="630" y="368.5" width="130" height="60" as="geometry" />
        </mxCell>
        <mxCell id="Cp0hF8P1XbObhAQc_Zf8-38" style="edgeStyle=orthogonalEdgeStyle;rounded=0;orthogonalLoop=1;jettySize=auto;html=1;strokeColor=#CC0066;strokeWidth=2;" parent="1" source="Cp0hF8P1XbObhAQc_Zf8-39" target="Cp0hF8P1XbObhAQc_Zf8-36" edge="1">
          <mxGeometry relative="1" as="geometry" />
        </mxCell>
        <mxCell id="Cp0hF8P1XbObhAQc_Zf8-39" value="&lt;p style=&quot;margin:0px;margin-top:4px;text-align:center;&quot;&gt;&lt;b&gt;Class ... Endpoint&lt;/b&gt;&lt;/p&gt;&lt;hr size=&quot;1&quot;&gt;&lt;div style=&quot;height:2px;&quot;&gt;&amp;nbsp; &amp;nbsp; &amp;nbsp; &amp;nbsp;&lt;b&gt;/api/...&lt;/b&gt;&lt;/div&gt;&lt;div style=&quot;height:2px;&quot;&gt;...&lt;/div&gt;" style="verticalAlign=top;align=left;overflow=fill;fontSize=12;fontFamily=Helvetica;html=1;whiteSpace=wrap;fillColor=#f8cecc;strokeColor=#b85450;" parent="1" vertex="1">
          <mxGeometry x="630" y="171.5" width="130" height="60" as="geometry" />
        </mxCell>
      </root>
    </mxGraphModel>
  </diagram>
</mxfile>
